<svg xmlns="http://www.w3.org/2000/svg" width="12" height="28" viewBox="0 0 12 28">
  <defs>
    <style>
      .cls-1 {
        fill: #919eb1;
        fill-rule: evenodd;
      }
    </style>
  </defs>
  <path class="cls-1" d="M419.568,717.821l-0.707-.707a0.124,0.124,0,0,0-.176,0l-4.561,4.561V696.1A0.125,0.125,0,0,0,414,695.98h-1a0.125,0.125,0,0,0-.125.124v25.581l-4.561-4.561a0.124,0.124,0,0,0-.176,0l-0.706.707a0.124,0.124,0,0,0,0,.176l5.974,5.976a0.126,0.126,0,0,0,.178,0l0.706-.707h0L419.568,718A0.125,0.125,0,0,0,419.568,717.821Z" transform="translate(-407.515 -696)"/>
</svg>
