<svg xmlns="http://www.w3.org/2000/svg" width="15.875" height="15.91" viewBox="0 0 15.875 15.91">
  <defs>
    <style>
      .cls-1 {
        fill: #1f373d;
        fill-rule: evenodd;
      }
    </style>
  </defs>
  <path id="Composite_Path" data-name="Composite Path" class="cls-1" d="M733.444,5182.2a7.953,7.953,0,0,0-1.2-2.84,7.42,7.42,0,0,0-.969-1.17,8.16,8.16,0,0,0-2.525-1.71,7.962,7.962,0,0,0-8.712,1.71,7.588,7.588,0,0,0-.969,1.17,7.716,7.716,0,0,0-.731,1.35,7.87,7.87,0,0,0-.465,1.49,8.192,8.192,0,0,0-.161,1.6,7.889,7.889,0,0,0,2.326,5.62,7.926,7.926,0,0,0,2.526,1.7,7.189,7.189,0,0,0,1.492.46,7.619,7.619,0,0,0,3.2,0,7.142,7.142,0,0,0,1.493-.46,7.907,7.907,0,0,0,2.525-1.7,7.9,7.9,0,0,0,.969-1.17,8.17,8.17,0,0,0,.732-1.35,7.97,7.97,0,0,0,.625-3.1A7.968,7.968,0,0,0,733.444,5182.2Zm-1,1.53a15.9,15.9,0,0,0-4.724-.22c-0.048-.11-0.1-0.23-0.147-0.35-0.142-.33-0.294-0.66-0.451-0.98a8.758,8.758,0,0,0,3.78-2.69A6.779,6.779,0,0,1,732.443,5183.73Zm-2.3-5.02a7.376,7.376,0,0,1-3.545,2.46,34.249,34.249,0,0,0-2.536-3.96,7.019,7.019,0,0,1,1.6-.19A6.772,6.772,0,0,1,730.143,5178.71Zm-6.108-1.5v0.01h-0.02A0.026,0.026,0,0,0,724.035,5177.21Zm-1.269.46a40.52,40.52,0,0,1,2.519,3.91,24.786,24.786,0,0,1-6.264.82A6.778,6.778,0,0,1,722.766,5177.67Zm-3.891,6.13c0-.07,0-0.14.006-0.21a24.871,24.871,0,0,0,6.967-.97c0.193,0.38.38,0.77,0.55,1.16-0.089.02-.178,0.05-0.268,0.08a10.715,10.715,0,0,0-5.518,4.47l0,0.01A6.8,6.8,0,0,1,718.875,5183.8Zm6.786,6.79a6.768,6.768,0,0,1-4.322-1.56,1.342,1.342,0,0,0,.151.12,9.226,9.226,0,0,1,5.325-4.24c0.016,0,.031-0.01.044-0.01a28.059,28.059,0,0,1,1.45,5.15A6.674,6.674,0,0,1,725.661,5190.59Zm3.791-1.16a29.522,29.522,0,0,0-1.32-4.85,9.748,9.748,0,0,1,4.229.3A6.792,6.792,0,0,1,729.452,5189.43Z" transform="translate(-717.719 -5175.84)"/>
</svg>
