<svg xmlns="http://www.w3.org/2000/svg" width="19.15" height="26" viewBox="0 0 19.15 26">
  <defs>
    <style>
      .cls-1 {
        fill: #fff;
        fill-rule: evenodd;
      }
    </style>
  </defs>
  <path id="Composite_Path" data-name="Composite Path" class="cls-1" d="M1301.27,671.287a9.58,9.58,0,0,0-9.57,9.572,9.263,9.263,0,0,0,.84,3.907c2.39,5.237,6.98,10.766,8.33,12.336a0.536,0.536,0,0,0,.4.185,0.521,0.521,0,0,0,.4-0.185c1.35-1.57,5.94-7.1,8.34-12.336a9.409,9.409,0,0,0,.83-3.907A9.58,9.58,0,0,0,1301.27,671.287Zm0,14.544a4.973,4.973,0,1,1,4.97-4.972A4.977,4.977,0,0,1,1301.27,685.831Z" transform="translate(-1291.69 -671.281)"/>
</svg>
