<svg xmlns="http://www.w3.org/2000/svg" width="24.88" height="24.781" viewBox="0 0 24.88 24.781">
  <defs>
    <style>
      .cls-1 {
        fill: #fff;
        fill-rule: evenodd;
      }
    </style>
  </defs>
  <path class="cls-1" d="M1064.36,691.712l-3.83-3.838a2,2,0,0,0-2.82.054l-1.94,1.932c-0.12-.067-0.24-0.137-0.38-0.212a18.111,18.111,0,0,1-8.02-8.02c-0.07-.129-0.14-0.254-0.2-0.373l1.29-1.295,0.64-.638a1.994,1.994,0,0,0,.05-2.821l-3.83-3.837a2,2,0,0,0-2.82.052l-1.08,1.087,0.02,0.03a6.474,6.474,0,0,0-.89,1.572,6.9,6.9,0,0,0-.39,1.594c-0.51,4.2,1.41,8.038,6.62,13.246,7.2,7.2,13,6.656,13.25,6.629a6.541,6.541,0,0,0,1.6-.4,6.162,6.162,0,0,0,1.56-.888l0.03,0.022,1.09-1.073A2,2,0,0,0,1064.36,691.712Z" transform="translate(-1040.06 -672.094)"/>
</svg>
