<svg xmlns="http://www.w3.org/2000/svg" width="15.844" height="12.88" viewBox="0 0 15.844 12.88">
  <defs>
    <style>
      .cls-1 {
        fill: #1f373d;
        fill-rule: evenodd;
      }
    </style>
  </defs>
  <path id="Path" class="cls-1" d="M685.714,5179.35a6.463,6.463,0,0,1-1.864.51,3.255,3.255,0,0,0,1.427-1.8,6.21,6.21,0,0,1-2.062.79,3.253,3.253,0,0,0-5.619,2.23,3.325,3.325,0,0,0,.084.74,9.232,9.232,0,0,1-6.7-3.4,3.255,3.255,0,0,0,1.006,4.34,3.2,3.2,0,0,1-1.472-.41v0.04a3.253,3.253,0,0,0,2.606,3.19,3.446,3.446,0,0,1-.857.11,3.078,3.078,0,0,1-.61-0.06,3.258,3.258,0,0,0,3.032,2.26,6.516,6.516,0,0,1-4.032,1.39c-0.263,0-.52-0.02-0.776-0.04a9.25,9.25,0,0,0,14.222-7.79c0-.14,0-0.28-0.009-0.42A6.633,6.633,0,0,0,685.714,5179.35Z" transform="translate(-669.875 -5177.81)"/>
</svg>
